<?xml version="1.0" encoding="utf-8"?>
<!-- Generator: Adobe Illustrator 18.0.0, SVG Export Plug-In . SVG Version: 6.00 Build 0)  -->
<!DOCTYPE svg PUBLIC "-//W3C//DTD SVG 1.1//EN" "http://www.w3.org/Graphics/SVG/1.1/DTD/svg11.dtd">
<svg version="1.1" id="Layer_1" xmlns="http://www.w3.org/2000/svg" xmlns:xlink="http://www.w3.org/1999/xlink" x="0px" y="0px"
	 viewBox="0 0 1400 980" enable-background="new 0 0 1400 980" xml:space="preserve">
<g>
	<path fill="none" stroke="#231F20" stroke-miterlimit="10" d="M538.4,246.1C538.4,246.1,538.4,246.1,538.4,246.1
		c0,0.2-0.1,0.4-0.1,0.6c0,0.1,0,0.2,0,0.3v0"/>
	<path fill="#F6C49F" d="M632.3,268.4v10.9l39.2,49.4c41.9-48.4,41.9-48.4,41.9-48.4l0.3-12.3c0,0-26.6,19.8-38.9,23.2
		C662.6,294.6,632.3,268.4,632.3,268.4z"/>
	<path fill="none" d="M609,199.7c0,0-0.2-2.1-0.4-5.4c-0.3,1.2-0.5,2.4-0.7,3.6L609,199.7z"/>
	<path fill="#343434" d="M608.3,212.9c4.4-2.8,0,0-1.2-6c-0.3-1.6,0.1-4.9,0.8-9.1c0.2-1.1,0.4-2.3,0.7-3.6
		c2.5-12,6.9-28.5,7.7-35.1c1.2-9.9,8.7-22.8,21-20c12.3,2.8,36.5-5.3,54.4-15.2c17.9-9.9,29,12.4,29,12.4s0,0,4.3,9.9
		c4.3,9.9,6.2,35.2,6.2,47c0,11.8,6.8,18.5,11.1,9.8c1.5-2.9,2.1-8.4,2.4-14.7c0.5-12.5-0.7-28.1-1.1-33.5c-0.6-8,1.2-59.9,3.1-59.9
		c1.9,0,3.1-8-13-16.7c-16.1-8.6-51.9-8-75.4-4.3c-23.5,3.7-32.1,20.4-32.1,20.4s-4.3-4.3-16.1,11.1c-11.7,15.4-11.1,58.1-11.1,58.1
		c0.8,8.8,1.6,16.7,2.3,23.4C603.3,204.8,605.1,214.9,608.3,212.9z"/>
	<path fill="#AE8D6E" d="M672.1,285.2c-10,0-22.4-7.5-35.8-17.8c-1.3-1-2.7-2.1-4-3.1v4.1c0,0,30.3,26.2,42.6,22.8
		c12.3-3.4,38.9-23.2,38.9-23.2v-5.1c-2,1.5-4.1,3.1-6.2,4.6C694.7,276.6,679.8,285.2,672.1,285.2z"/>
	<path fill="#F6C49F" d="M751.1,193.6c-0.3-3.7-2.1-6.4-4.2-8.3l-2.3,2.9c-0.2,6.3-0.9,11.8-2.4,14.7c-4.3,8.6-11.1,1.9-11.1-9.8
		c0-11.8-1.9-37.1-6.2-47c-4.3-9.9-4.3-9.9-4.3-9.9s-11.1-22.2-29-12.4c-17.9,9.9-42.1,17.9-54.4,15.2c-12.3-2.8-19.8,10.1-21,20
		c-0.8,6.6-5.3,23.1-7.7,35.1c0.2,3.3,0.4,5.4,0.4,5.4l-1.1-1.9c-0.8,4.2-1.2,7.6-0.8,9.1c1.2,6,5.6,3.2,1.2,6c-3.2,2-5-8-6.9-26
		l-2.2-3.7c-3.2,1.7-6.3,4.9-6.7,10.7c0,0,0,0,0,0c0,0.4,0,0.8,0,1.3c0,3.5,0.9,6.7,2.3,9.5c0,0,0,0,0,0
		c4.2,8.4,12.5,13.4,12.5,13.4s-2.9,22.9,15.5,38.4c3.2,2.7,6.5,5.4,9.7,7.9c1.3,1.1,2.7,2.1,4,3.1c13.4,10.3,25.8,17.8,35.8,17.8
		c7.7,0,22.6-8.6,35.4-17.7c2.2-1.5,4.3-3.1,6.2-4.6c6.7-5.1,12.1-10,14.5-13.2c7.4-9.6,11.8-34.7,11.8-34.7s4.1-4.1,7.3-9.4v0
		C749.6,201.9,751.4,197.5,751.1,193.6z"/>
	<g>
		<path fill="#FCD8D6" d="M852.5,432.4c-4.6-26.2-19.2-73.9-36.8-90c-17.6-16.2-101.9-52.3-101.9-52.3l-8.4,74.6l-33-36.9
			l-34.5,36.9l-8.4-76.2c0,0-87.4,44.6-103.5,58.5c-16.1,13.8-19.9,111.5-19.9,111.5h351C857.1,458.6,857.1,458.6,852.5,432.4z"/>
		<polygon fill="#F07A75" points="713.8,275.9 713.8,290.1 705.3,364.7 672.4,327.8 		"/>
		<polygon fill="#F07A75" points="632.5,275.9 629.5,288.6 637.9,364.7 672.4,327.8 		"/>
		<polygon fill="#723138" points="656.1,345.3 664,360.1 650.9,458.6 693.1,458.6 681.6,358.6 688,345.3 672.4,327.8 		"/>
	</g>
</g>
<g>
	<path fill="#605343" d="M323.3,384c0,0-8.2,0.5-21,1.3h0c-0.8,0-1.6,0.1-2.4,0.1c-1.3,0.1-2.6,0.2-4,0.2l-2-25.7
		c0,0-12.7-39.9-25.8-27.7c-0.4,0.3-0.8,0.7-1.1,1.2v-25.7l-0.6,0c1.3-0.9,2.6-1.8,3.9-2.7c1.8-1.3,3.5-2.6,5.2-3.8
		c6.8-5.2,12.3-10.2,14.8-13.3c7.1-9.3,11.4-33.4,11.4-33.4s11.4-11.4,10.7-20.6c-0.3-3.5-1.9-6.1-4-7.9l-7.1,15.4
		c0,0-0.2-9.2-0.1-19.6c-0.1,0-0.2-0.1-0.2-0.1s0.1-0.6,0.2-1.7c0.2-2.4,0.4-7,0.1-12.6v-0.3c-0.1-0.6-0.1-1.2-0.2-1.8
		c-1.8-10.5-20.5,4.2-30.7,2c-10.8-2.3-24.7-42.4-24.7-42.4s-7.7-13.1-16.2,0c-8.5,13.1-17,43.9-29.3,45.5c-12,1.5-24.5-2-25-2.1
		c0,0.2-0.1,0.4-0.1,0.5c-0.6,4-1.1,8.3-1.5,12.8v16.5l-9.7-13.3c-2.5,2-4.5,5.2-4.5,10.2c0,13.5,14.2,22.1,14.2,22.1
		s-2.8,22.1,15,37c2.9,2.5,5.8,4.8,8.7,7.1c1.5,1.2,3,2.4,4.5,3.5c2.4,1.9,4.9,3.7,7.3,5.3l-0.6,0l-0.3,2.6l-0.1,1.3l-1.4,11.9
		l-0.6,5.4c0,0-9.7,1.7-5.9,6c-2.2,0.7-4.9,1.5-8.1,2.2c-7,1.7,4.4,33-5,33c-1.4,0-5.8,0.5-10.7,1.3c-7.1,1.2-15.3,2.9-16.8,4.3
		c0-1.2-1.6-34.1-1.6-35.4c0.5-38-8.5-87.4-5.3-101.6c4.6-20.8-13.1-94.1,46.3-110.2c0,0,17.7-11.6,41.6-11.6
		c23.9,0,50.9,17.7,60.1,30.8c9.3,13.1,19.2,66.3,11.9,104.1c-7.3,37.8-4,60.1-4,60.1L310,330c0,0,0,0,0,0l2.1,17l9.2,30.5
		L323.3,384z"/>
	<path fill="#AE8D6E" d="M275.3,296.9v5.7c0,0-3.5,3-8.5,7c-8.5,6.8-21.4,16.5-28.9,18.9c-7.1,2.3-20.5-7.5-30.1-15.6
		c-6.3-5.3-10.8-9.9-10.8-9.9v-4.5c1.3,1.2,2.6,2.4,3.8,3.5c12.9,11.5,24.8,19.8,34.4,19.8c7.4,0,21.7-9.6,34-19.7
		C271.3,300.4,273.4,298.6,275.3,296.9z"/>
	<path fill="#F6C49F" d="M235.9,321.9c-7.7,0-16.9-4.6-27-11.6l-0.2,0c10.1,7.1,19.5,11.8,27.3,11.8c6.6,0,18.9-6.6,30.2-14.3
		l-0.4,0C254.5,315.4,242.4,321.9,235.9,321.9z"/>
	<path fill="#F6C49F" d="M290.1,288c7.1-9.2,11.4-33.4,11.4-33.4s11.4-11.4,10.7-20.6c-0.3-3.5-1.9-6.1-4-7.9l-7.1,15.5
		c0,0-0.1-9.2-0.1-19.6c-0.1,0-0.2-0.1-0.2-0.1s0.1-0.6,0.2-1.7c0.2-2.4,0.4-7,0.1-12.6v-0.3c0-0.6-0.1-1.2-0.1-1.8
		c-1.8-10.5-20.5,4.2-30.7,2c-10.8-2.3-24.7-42.4-24.7-42.4s-7.7-13.1-16.2,0c-8.5,13.1-17,43.9-29.3,45.5c-12,1.5-24.5-2-25-2.1
		c0,0.2-0.1,0.4-0.1,0.5c-0.6,4-1.1,8.3-1.5,12.8v16.5l-9.7-13.3c-2.5,2-4.5,5.2-4.5,10.2c0,13.5,14.2,22.1,14.2,22.1
		s-2.8,22.1,14.9,37c4.4,3.7,8.8,7.3,13.2,10.6c2.5,1.9,4.9,3.7,7.3,5.3l0.2,0c10,6.9,19.2,11.6,27,11.6c6.5,0,18.6-6.5,29.8-14.1
		l0.4,0c1.3-0.9,2.6-1.8,3.9-2.7C279.1,298.6,287,291.9,290.1,288z"/>
	<path fill="#C23D37" d="M405.7,461.5h-153L272,337.3l-7.4-9l5.5-8.4l0,0l24.8,26.6c0,0,36.5,19.7,57.2,23.4
		c20.8,3.7,43.8,11.4,49.2,45.8C406.8,450,405.7,461.5,405.7,461.5z"/>
	<polygon fill="#C23D37" points="272,337.3 252.8,461.5 233.4,461.5 233.4,461.5 220.7,461.5 201.7,339.2 208.9,330.4 237.7,369.9 
		236.7,371.3 238,370.1 237.7,369.8 264.7,328.3 266.8,330.9 267.9,332.3 	"/>
	<path fill="#C23D37" d="M220.7,461.5H71.1c0,0-1.1-11.4,4.4-45.8c5.5-34.4,28.4-42.1,49.2-45.8c17.7-3.1,46.9-18,55.1-22.3
		c1.4-0.7,2.2-1.2,2.2-1.2l0.2,0.4l21.5-23.7l5.3,7.3l-7.2,8.8L220.7,461.5z"/>
	<polygon fill="#EDE0CF" points="305,426.1 252.9,461.5 252.8,461.6 252.8,461.5 272,337.3 267.9,332.3 266.8,330.9 264.7,328.3 
		264.6,328.3 266.8,324.9 270.1,319.9 270.1,319.9 295,346.7 299.8,385.5 301.4,398.1 278.9,403.6 	"/>
	<path fill="#F6C49F" d="M266.8,324.9l-2.2,3.4l0,0.1l-26.9,41.5l0.3,0.3l-1.3,1.1l1-1.4l-28.8-39.5l0.1-0.1l-2.7-4.2l1.4-11.9
		l0.1-1.3c9.5,8.1,23,17.9,30.1,15.6c7.4-2.4,20.3-12.1,28.9-18.9V324.9z"/>
	<polygon fill="#EDE0CF" points="220.7,461.6 220.5,461.5 169.3,426.7 195,404.5 172.8,399.1 175.9,374 179.1,348.4 179.8,347.6 
		203.6,322 206.3,326.1 209,330.3 208.9,330.4 201.7,339.2 220.7,461.5 	"/>
</g>
<g>
	<path fill="#F6C49F" d="M657.5,749.8v10.9l38.3,52c41.9-48.4,42.8-50.9,42.8-50.9l0.3-12.3c0,0-26.6,19.8-38.9,23.2
		C687.8,776,657.5,749.8,657.5,749.8z"/>
	<path fill="#AE8D6E" d="M697.3,766.6c-10,0-22.4-7.5-35.8-17.8c-1.3-1-2.7-2.1-4-3.1v4.1c0,0,30.3,26.2,42.6,22.8
		c12.3-3.4,38.9-23.2,38.9-23.2v-5.1c-2,1.5-4.1,3.1-6.2,4.6C720,758,705,766.6,697.3,766.6z"/>
	<g>
		<g>
			<path fill="#BB9C40" d="M662,762.2v-12.7h70.7c0,0-5.7,14.6-7.6,20.4c-0.6,1.9,4.9,6.1,13.1,10.9c9.4-8.7,18.1-17.2,20.8-21.4
				c6.6-10.3,12.3-38.3,11-50.5v0l-0.4-22.2c0,0,0.9-36.6,0-49.7c-0.9-13.1-12.3-20.6-12.3-20.6s0,0-4.1-16.8
				c-4.1-16.8-23-37.4-46-39.2c-23-1.9-33.7,14-33.7,14s0,0-4.9-3.7c-4.9-3.8-27.1,12.1-41.3,51.3c-10.8,30-11.7,43.6-6.5,73.9
				c0,0,0,0,0,0c0.6,3.7,1.4,7.6,2.2,11.8c0,0,0,0,0,0c1.2,6.4,2.7,13.6,4.3,21.7c4.2,21,13.6,36.9,23.8,48.7
				c5.5-2.2,9.1-3.8,9.1-3.8L662,762.2z"/>
		</g>
		<path fill="#F6C49F" d="M770,690.9L770,690.9c-3.1,5.1-7,9.1-7,9.1s-4.3,24.2-11.4,33.4c-3,3.9-10.9,10.7-20,17.1
			c-12.3,8.8-26.7,17-34.1,17c-9.6,0-21.6-7.2-34.5-17.1c-4.3-3.3-8.7-6.9-13.2-10.6c-17.8-14.9-14.9-37-14.9-37s-8-4.8-12-12.9
			c0,0,0,0,0,0c-1.3-2.7-2.2-5.8-2.2-9.2c0-0.4,0-0.8,0-1.2c0,0,0,0,0,0c0.4-5.6,3.3-8.6,6.5-10.3l9.5,15.9c0,0-1.8-17.9,0-32.9v0
			c0-0.3,0.1-0.6,0.1-0.9c0.1-0.6,0.2-1.2,0.3-1.8c0,0,0,0,0-0.1c2.6-13.4,12-22.2,18.1-28.4c6.6-6.6,1.3-18.5,22.2-22.2
			c20.9-3.7,19.7,17.3,40.3,46.3c20.6,29,28,6.4,37,10.5c9.1,4.1,4.1,29.6,4.1,29.6l10.6-13.8c2,1.9,3.7,4.5,4,8
			C774,683.2,772.2,687.4,770,690.9z"/>
	</g>
	<g>
		<polygon fill="#FFFFFF" points="728.2,760.8 753,787.5 721.1,836.1 695.8,810.8 		"/>
		<polygon fill="#FFFFFF" points="692.2,815.2 692.2,902.5 700.8,902.5 700.8,815.9 695.8,810.9 		"/>
		<path fill="#278086" d="M753,787.5c0,0,36.5,19.7,57.2,23.4c20.8,3.7,43.8,11.4,49.2,45.8s4.4,45.8,4.4,45.8h-163v-86.6l20.3,20.3
			L753,787.5z"/>
		<g>
			<polygon fill="#FFFFFF" points="688.8,819.3 695.8,810.9 661.7,764.1 640.3,787.8 671.9,836.1 			"/>
			<path fill="#278086" d="M671.9,836.1l-31.6-48.3l-0.2-0.4c0,0-36.5,19.7-57.2,23.4c-20.8,3.7-43.8,11.4-49.2,45.8
				c-5.5,34.3-4.4,45.8-4.4,45.8h163v-86.6l-3.4,3.4L671.9,836.1z"/>
		</g>
	</g>
</g>
<g>
	<path fill="#F6C49F" d="M1100.3,267.6v10.9l39.2,49.4c41.9-48.4,41.9-48.4,41.9-48.4l0.3-12.3c0,0-26.6,19.8-38.9,23.2
		C1130.6,293.9,1100.3,267.6,1100.3,267.6z"/>
	<path fill="#AE8D6E" d="M1140.1,284.5c-10,0-22.4-7.5-35.8-17.8c-1.3-1-2.7-2.1-4-3.1v4.1c0,0,30.3,26.2,42.6,22.8
		c12.3-3.4,38.9-23.2,38.9-23.2v-5.1c-2,1.5-4.1,3.1-6.2,4.6C1162.8,275.9,1147.8,284.5,1140.1,284.5z"/>
	<polygon fill="#FCF9CE" points="1173.4,364 1165.3,457.9 1161.1,457.9 1149.6,357.8 1156,344.6 	"/>
	<polygon fill="#FCF9CE" points="1132,359.4 1119,457.9 1114.1,457.9 1106.1,363.9 1124.1,344.6 	"/>
	<path fill="#86CEBC" d="M1106.1,363.9l8,94H974.1c0,0,3.8-97.7,19.9-111.5c12.3-10.6,66.2-39.1,91-52c6.1-3.2,10.5-5.4,11.9-6.2
		l0,0c0.4-0.2,0.5-0.3,0.5-0.3v0l8.4,76.1L1106.1,363.9z"/>
	<polygon fill="#86CEBC" points="1119,457.9 1132,359.4 1124.1,344.6 1140.4,327.1 1156,344.6 1149.6,357.8 1161.1,457.9 	"/>
	<path fill="#86CEBC" d="M1325.1,457.9h-159.8l8-93.8l8.4-74.6l1.8,0.8c1.8,0.8,4.8,2.1,8.8,3.8l1.2,0.5
		c23.8,10.6,76.6,34.8,90.2,47.2c17.6,16.1,32.2,63.8,36.8,90C1325.1,457.9,1325.1,457.9,1325.1,457.9z"/>
	<polygon fill="#A37474" points="1181.8,275.1 1181.8,289.4 1173.4,364 1156,344.6 1140.4,327.1 	"/>
	<polygon fill="#A37474" points="1140.4,327.1 1124.1,344.6 1106.1,363.9 1105.9,364 1097.5,287.9 1097.5,287.8 1100.6,275.1 	"/>
	<polygon fill="#723138" points="1119,457.9 1132,359.4 1124.1,344.6 1140.4,327.1 1156,344.6 1149.6,357.8 1161.1,457.9 	"/>
	<g>
		<path fill="#F6C49F" d="M1073.9,215.9c-0.5-0.3-8.6-5.3-12.8-13.7c0,0,0,0,0,0c-1.4-2.9-2.4-6.2-2.4-9.8c0-0.5,0-0.9,0-1.3
			c0,0,0,0,0,0c0.4-6,3.6-9.2,6.9-11l0.2,0.3C1067.6,194.4,1070.1,207.4,1073.9,215.9z"/>
		<path fill="#F6C49F" d="M1217.9,203.2L1217.9,203.2c-0.8,1.4-1.7,2.6-2.5,3.8c0.5-7,0.9-14.3,0.5-22.5l1.6-2.1
			c2.2,2,4,4.8,4.3,8.5C1222.1,194.9,1220.2,199.4,1217.9,203.2z"/>
		<path fill="none" d="M1073.9,215.9c3.4,7.5,3.9,15.9,4.1,23.9C1072.5,227.5,1073.9,215.9,1073.9,215.9z"/>
		<path fill="none" d="M1169.2,247.6v16.8c0,0-20.7,8.4-32.3,9.7c-11.6,1.3-22-9.7-22-9.7c-4-3.5,2.6-22.6,7.1-22.6
			c4.5,0,15.5-4.5,20-5.2C1146.6,236,1169.2,247.6,1169.2,247.6z"/>
		<path fill="none" d="M1206.1,197.1c0,0,1.9,24-10.4,39.5c-12.3,15.5-17.5,19.4-17.5,19.4s-0.6-16.2-7.1-22
			c-6.5-5.8-25.2-10.3-25.2-10.3l-5.3,3.9l-3.2-4.5c0,0-24.6,9.1-27.2,12.3c-2.6,3.2-3.2,20.7-3.2,20.7s-15.5-8.4-20.7-20.7
			c-5.2-12.3-10.5-38.2-10.5-38.2s7.3-73.6,27.4-62.6c0,0,6.5,5.2,23.9,5.2c17.5,0,38.8-18.8,47.2-18.8c8.4,0,23.9,25.2,21.3,36.2
			c-2.5,10.7,11.1,23.3,11.8,23.9c0,0,0,0,0,0l0,0.1C1207.7,189.2,1206.1,197.1,1206.1,197.1z"/>
		<path fill="none" d="M1207.6,181c-0.7-0.6-14.3-13.2-11.8-23.9c2.6-11-12.9-36.2-21.3-36.2c-8.4,0-29.7,18.8-47.2,18.8
			c-17.5,0-23.9-5.2-23.9-5.2c-20-11-27.4,62.6-27.4,62.6s-1.9-19.1,0-35.1v0c0-0.3,0.1-0.6,0.2-1c0.1-0.6,0.2-1.3,0.3-2
			c0,0,0,0,0-0.1c2.8-14.3,12.7-23.7,19.3-30.3c7-7,2.6-15.6,23.7-23.7c100.2-38.3,72.8,56.1,82.4,60.5
			C1206.2,167.6,1207.5,174.3,1207.6,181z"/>
		<path fill="#625144" d="M1171.2,76.3c-31-10.3-42.7-12.9-68.5-5.8c-25.9,7.1-40.1,30.9-40.1,47.5c0,10.5,0.4,38,3.4,62.5
			c1.7,14,4.2,27,8,35.5l0,0c3.4,7.5,3.9,15.9,4.1,23.9c2.4,5.3,6.1,10.7,11.8,15.5c4.7,4,9.4,7.8,14,11.3
			c13.7,10.5,26.5,18.2,36.8,18.2c7.9,0,23.2-8.8,36.3-18.1c9.7-6.9,18.1-14.1,21.3-18.3c7.6-9.9,12.1-35.6,12.1-35.6s2.4-2.4,5-5.9
			c0.5-7,0.9-14.3,0.5-22.5c-0.2-4.6-0.6-9.6-1.4-15.1c0,0,0-54.3,3.9-55.6C1222.2,112.5,1202.2,86.6,1171.2,76.3z"/>
		<path fill="#F6C49F" d="M1207.6,181L1207.6,181l0,0.2l-1.4,15.9c0,0,1.9,24-10.4,39.5c-12.3,15.5-17.5,19.4-17.5,19.4
			s-0.6-16.2-7.1-22c-6.5-5.8-25.2-10.3-25.2-10.3l-5.3,3.9l-3.2-4.5c0,0-24.6,9.1-27.2,12.3c-2.6,3.2-3.2,20.7-3.2,20.7
			s-15.5-8.4-20.7-20.7c-5.2-12.3-10.5-38.2-10.5-38.2s7.3-73.6,27.4-62.6c0,0,6.5,5.2,23.9,5.2c17.5,0,38.8-18.8,47.2-18.8
			c8.4,0,23.9,25.2,21.3,36.2C1193.2,167.8,1206.9,180.4,1207.6,181C1207.6,181,1207.6,181,1207.6,181z"/>
		<path fill="#F6C49F" d="M1169.2,247.6v16.8c0,0-20.7,8.4-32.3,9.7c-11.6,1.3-22-9.7-22-9.7c-4-3.5,2.6-22.6,7.1-22.6
			c4.5,0,15.5-4.5,20-5.2C1146.6,236,1169.2,247.6,1169.2,247.6z"/>
	</g>
	<polygon fill="#5F5E5B" points="1221.8,372.9 1187.2,457.9 1165.3,457.9 1173.4,364 1181.8,289.4 1183.6,290.2 1192.3,294 
		1193.6,294.5 1218.8,332.7 1193.6,364 	"/>
	<polygon fill="#5F5E5B" points="1114.1,458.1 1092.2,458.1 1092.2,457.9 1057.6,372.2 1085.8,363.3 1060.5,331.7 1085,294.3 
		1085.8,293 1096.9,288.1 1097,288.1 1097.5,287.9 1097.6,287.8 1106,363.3 1106.1,363.9 1114.1,457.9 	"/>
</g>
<g>
	<g>
		<path fill="#F6C49F" d="M1200.4,584.6c-14.2-1.7-14.2-1.7-14.2-1.7s0-7.5-6.7-7.5s-1.7,13.4-8.4,11.7c-6.7-1.7-18.3-8.2-24.7,1.7
			c0,0-8.7,20.9-30.4,21.7c-21.7,0.8-21.7,0.8-21.7,0.8s-4.2,15.1-8.4,15.9c-4.1,0.8,4.1,24.1,0,30.9c-4.1,6.8-4.1,6.8-4.1,6.8
			s-2.9,22.9,15.5,38.4c4.6,3.9,9.2,7.6,13.7,11c13.4,10.3,25.8,17.8,35.8,17.8c7.7,0,22.6-8.6,35.4-17.7
			c9.4-6.7,17.6-13.7,20.7-17.8c7.4-9.6,11.8-34.7,11.8-34.7l-5.1-2.2C1209.6,659.8,1214.6,586.3,1200.4,584.6z"/>
		<path fill="#F6C49F" d="M1219.1,630.4c-0.5,7.2-1.2,13.8-2.1,18.5c-2.4,13-2.4,13-2.4,13s11.8-11.8,11.1-21.4
			C1225.4,635.5,1222.1,632.3,1219.1,630.4z"/>
		<path fill="#F6C49F" d="M1067,642.1c0,14,14.8,22.9,14.8,22.9s-6.7-19.2-8.9-34.3C1069.8,632.6,1067,636,1067,642.1z"/>
		<path fill="#343434" d="M1209.6,547.8c-7.5-8.4-15-7.4-15-7.4s-19.2-11.7-44.3-15.9c-25.1-4.2-56,17.5-69.3,23.3
			c-13.4,5.8-34.3,0-34.3,0s-4.2,15.1,0,35.2c4.2,20,28.4,21.7,28.4,21.7s0,0-2.5,13.4c-0.6,3.3-0.4,7.7,0.3,12.6
			c2.2,15.1,8.9,34.3,8.9,34.3s0,0,4.1-6.8c4.1-6.8-4.1-30.1,0-30.9c4.1-0.8,8.4-15.9,8.4-15.9s0,0,21.7-0.8
			c21.7-0.8,30.4-21.7,30.4-21.7c6.5-9.9,18-3.3,24.7-1.7c6.7,1.7,1.7-11.7,8.4-11.7s6.7,7.5,6.7,7.5s0,0,14.2,1.7
			c14.2,1.7,9.2,75.2,9.2,75.2l5.1,2.2c0,0,0,0,2.4-13c0.9-4.7,1.5-11.4,2.1-18.5c0.9-12.5,1.3-26.8,1.3-36
			C1220.4,580,1217.1,556.2,1209.6,547.8z"/>
	</g>
	<path fill="#F6C49F" d="M1106.8,715.2v10.9l39.2,49.4c41.9-48.4,41.9-48.4,41.9-48.4l0.3-12.3c0,0-26.6,19.8-38.9,23.2
		C1137.1,741.4,1106.8,715.2,1106.8,715.2z"/>
	<path fill="#AE8D6E" d="M1146.6,732c-10,0-22.4-7.5-35.8-17.8c-1.3-1-2.7-2.1-4-3.1v4.1c0,0,30.3,26.2,42.6,22.8
		c12.3-3.4,38.9-23.2,38.9-23.2v-5.1c-2,1.5-4.1,3.1-6.2,4.6C1169.3,723.5,1154.3,732,1146.6,732z"/>
	<polygon fill="#9C8EC4" points="1188.3,722.7 1188.3,736.9 1179.9,811.5 1162.5,792.1 1146.9,774.6 	"/>
	<polygon fill="#9C8EC4" points="1146.9,774.6 1130.6,792.1 1112.6,811.4 1112.4,811.5 1104,735.4 1104,735.4 1107.1,722.7 	"/>
	<path fill="#5F5E5B" d="M1327,879.2c-4.6-26.2-19.2-73.9-36.8-90c-13.5-12.4-66.3-36.6-90.2-47.2l-1.2-0.5c-3.9-1.7-7-3.1-8.8-3.8
		l-1.8-0.8l-8.4,74.6l-17.4-19.5l-15.6-17.5l-16.3,17.5l-18,19.3l-0.1-0.6l-8.4-75.4l-0.1,0v0c0,0-0.2,0.1-0.5,0.3l0,0l-11.1,4.9
		l-0.8,1.3c-24.8,12.9-78.7,41.4-91,52c-16.1,13.8-19.9,111.5-19.9,111.5h118l0.1,0.2h21.8l0-0.2h4.9h42.2h4.2h21.8h138
		C1331.6,905.4,1331.6,905.4,1327,879.2z"/>
</g>
<g>
	<g>
		<path fill="#F6C49F" d="M271,589.1c-9.9,6-20.3,1.2-31.1-4.5s-43.3-10.4-55.2-3.8s-7.6,25.6-14.2,33.2
			c-6.6,7.6-15.2,27.1-12.3,29.4c2.8,2.4,1,17.1-2,19.1c2.2,1.9,3.9,2.9,3.9,2.9s-2.9,22.5,15.2,37.7c4.5,3.8,9,7.5,13.4,10.8
			c13.1,10.1,25.4,17.4,35.2,17.4c7.5,0,22.2-8.4,34.7-17.3c9.2-6.6,17.3-13.5,20.4-17.5c7.3-9.4,11.6-34.1,11.6-34.1
			s-0.7-33.4-8.7-45.3C273.9,605.3,271,589.1,271,589.1z"/>
		<path fill="#F6C49F" d="M145.6,643c0,8.3,5.2,14.7,9.4,18.5c-1.7-4.7-2.2-22.4-2.9-30.2C148.7,633.2,145.6,636.6,145.6,643z"/>
		<path fill="#F6C49F" d="M295.6,632c-2.3,17-5,30.6-5,30.6s11.6-11.6,10.9-21C301.2,636.9,298.4,633.9,295.6,632z"/>
		<path fill="#625242" d="M156.2,662.6C156.2,662.6,156.2,662.6,156.2,662.6c-0.4-0.3-0.8-0.7-1.2-1.1
			C155.4,662.5,155.7,662.9,156.2,662.6z"/>
		<path fill="#625242" d="M296.5,570.9c-8.2-20-36.7-44.5-72.9-43.6c-36.2,0.9-57.1,22.7-65.2,37.3s-6.4,37.1-6.4,38.6
			c0,1.4-1.3,19-0.2,26.1c0.1,0.6,0.2,1.3,0.3,2.1c0.8,7.8,1.3,25.5,2.9,30.2c0.4,0.4,0.8,0.7,1.2,1c2.9-2,4.8-16.7,2-19.1
			c-2.8-2.4,5.7-21.8,12.3-29.4c6.6-7.6,2.4-26.6,14.2-33.2s44.4-1.9,55.2,3.8s21.1,10.4,31.1,4.5c0,0,2.9,16.2,10.9,28.2
			c8,12,8.7,45.3,8.7,45.3s2.7-13.6,5-30.6C298.6,609.9,301.1,582.2,296.5,570.9z"/>
	</g>
	<path fill="#AE8D6E" d="M223.5,731c-10,0-22.4-7.5-35.8-17.8c-1.3-1-2.7-2.1-4-3.1v4.1c0,0,30.3,26.2,42.6,22.8
		c12.3-3.4,38.9-23.2,38.9-23.2v-5.1c-2,1.5-4.1,3.1-6.2,4.6C246.1,722.4,231.1,731,223.5,731z"/>
	<path fill="#F6C49F" d="M265.1,721.6v14.3c-49.5,47-82,1.8-84.2-1.3l8.4,75.2l0.1,0.6l-0.1,0.1l-8.4-76.1v0l2.8-11.6v-8.6
		c0,0,17.3,15,31.1,20.8c4.4,1.9,8.5,2.8,11.5,2c1.4-0.4,2.9-1,4.6-1.7c13.3-5.9,34.3-21.5,34.3-21.5l-0.2,8.2L265.1,721.6z"/>
	<path fill="#878CC5" d="M408.4,904.4c0,0,0,0-4.6-26.2c-4.6-26.2-19.2-73.9-36.8-90c-13.5-12.4-66.3-36.6-90.2-47.2l-1.2-0.5
		c-3.9-1.7-7-3.1-8.8-3.8l-1.8-0.8c-49.5,47-82,1.8-84.2-1.3l0-0.2v0l-0.1,0v0c0,0-0.2,0.1-0.5,0.3l0,0l-11.1,4.9l-0.8,1.3
		c-24.8,12.9-78.7,41.4-91,52c-16.1,13.8-19.9,111.5-19.9,111.5h118l0.1,0.2h21.8l0-0.2H408.4z M225.5,771.4l-1.7,2.2l-0.1-0.1
		C224.3,772.8,224.9,772.1,225.5,771.4z"/>
	<path fill="#F6C49F" d="M265.1,735.9c-49.5,47-82,1.8-84.2-1.3c-0.1-0.1-0.1-0.2-0.1-0.2h0.1l33.8,0.6l16.1,0.3L265.1,735.9z"/>
</g>
</svg>
